<?xml version="1.0" standalone="no"?><!DOCTYPE svg PUBLIC "-//W3C//DTD SVG 1.1//EN"
        "http://www.w3.org/Graphics/SVG/1.1/DTD/svg11.dtd">
<svg t="1574421220242" class="icon" viewBox="0 0 1129 1024" version="1.1" xmlns="http://www.w3.org/2000/svg" p-id="2784"
     xmlns:xlink="http://www.w3.org/1999/xlink" width="25" height="25">
    <defs>
        <style type="text/css"></style>
    </defs>
    <path d="M492.57931 877.462069a19.244138 19.244138 0 0 1-6.885517-1.412414 17.655172 17.655172 0 0 1-10.593103-18.714483L512 590.035862h-172.667586A17.655172 17.655172 0 0 1 323.089655 564.965517L476.689655 209.037241a17.655172 17.655172 0 0 1 16.242759-10.593103h252.645517a17.655172 17.655172 0 0 1 15.183448 8.474483 17.655172 17.655172 0 0 1 0 17.655172l-105.931034 205.506207h146.184827a17.655172 17.655172 0 0 1 15.713104 9.886897 17.655172 17.655172 0 0 1-1.588966 17.655172L506.703448 870.4a17.655172 17.655172 0 0 1-14.124138 7.062069z m-126.411034-322.736552h167.017931a17.655172 17.655172 0 0 1 13.241379 6.002759 17.655172 17.655172 0 0 1 4.237242 13.947586L519.591724 794.482759l247.172414-329.445518h-139.828966a17.655172 17.655172 0 0 1-15.713103-25.6l105.931034-205.506207h-211.862069z"
          fill="#bfbfbf" p-id="2785"></path>
</svg>