<?xml version="1.0" standalone="no"?><!DOCTYPE svg PUBLIC "-//W3C//DTD SVG 1.1//EN" "http://www.w3.org/Graphics/SVG/1.1/DTD/svg11.dtd"><svg t="1575126127015" class="icon" viewBox="0 0 1024 1024" version="1.1" xmlns="http://www.w3.org/2000/svg" p-id="2689" xmlns:xlink="http://www.w3.org/1999/xlink" width="32" height="32"><defs><style type="text/css"></style></defs><path d="M512 512m-512 0a512 512 0 1 0 1024 0 512 512 0 1 0-1024 0Z" fill="#D3EAFF" p-id="2690"></path><path d="M354.461538 315.076923h98.461539c21.661538 0 39.384615 17.723077 39.384615 39.384615v98.461539c0 21.661538-17.723077 39.384615-39.384615 39.384615h-98.461539c-21.661538 0-39.384615-17.723077-39.384615-39.384615v-98.461539c0-21.661538 17.723077-39.384615 39.384615-39.384615zM354.461538 531.692308h98.461539c21.661538 0 39.384615 17.723077 39.384615 39.384615v98.461539c0 21.661538-17.723077 39.384615-39.384615 39.384615h-98.461539c-21.661538 0-39.384615-17.723077-39.384615-39.384615v-98.461539c0-21.661538 17.723077-39.384615 39.384615-39.384615zM571.076923 315.076923h98.461539c21.661538 0 39.384615 17.723077 39.384615 39.384615v98.461539c0 21.661538-17.723077 39.384615-39.384615 39.384615h-98.461539c-21.661538 0-39.384615-17.723077-39.384615-39.384615v-98.461539c0-21.661538 17.723077-39.384615 39.384615-39.384615z" fill="#1890FF" p-id="2691"></path><path d="M580.923077 541.538462h78.769231c21.661538 0 39.384615 17.723077 39.384615 39.384615v78.769231c0 21.661538-17.723077 39.384615-39.384615 39.384615h-78.769231c-21.661538 0-39.384615-17.723077-39.384615-39.384615v-78.769231c0-21.661538 17.723077-39.384615 39.384615-39.384615z" fill="#D3EAFF" p-id="2692"></path><path d="M659.692308 708.923077h-78.769231c-27.569231 0-49.230769-21.661538-49.230769-49.230769v-78.769231c0-27.569231 21.661538-49.230769 49.230769-49.230769h78.769231c27.569231 0 49.230769 21.661538 49.230769 49.230769v78.769231c0 27.569231-21.661538 49.230769-49.230769 49.230769z m-78.769231-157.538462c-15.753846 0-29.538462 13.784615-29.538462 29.538462v78.769231c0 15.753846 13.784615 29.538462 29.538462 29.538461h78.769231c15.753846 0 29.538462-13.784615 29.538461-29.538461v-78.769231c0-15.753846-13.784615-29.538462-29.538461-29.538462h-78.769231z" fill="#1890FF" p-id="2693"></path></svg>