<?xml version="1.0" standalone="no"?><!DOCTYPE svg PUBLIC "-//W3C//DTD SVG 1.1//EN"
        "http://www.w3.org/Graphics/SVG/1.1/DTD/svg11.dtd">
<svg t="1575126228057" class="icon" viewBox="0 0 1024 1024" version="1.1" xmlns="http://www.w3.org/2000/svg" p-id="4403"
     xmlns:xlink="http://www.w3.org/1999/xlink" width="32" height="32">
    <defs>
        <style type="text/css"></style>
    </defs>
    <path d="M512 1024C794.768808 1024 1024 794.768808 1024 512S794.768808 0 512 0 0 229.231192 0 512 229.231192 1024 512 1024z"
          fill="#EA4A24" p-id="4404"></path>
    <path d="M855.970909 511.782788c-24.576 0.237899-145.066667-69.352727-148.87305-72.983273-9.153939-8.729859-5.688889-19.590465 3.640888-21.069576 9.340121-1.489455 61.77099-7.726545 61.77099-7.726545-32.230141-86.140121-104.137697-154.92396-198.521535-177.224404-150.631434-35.591758-306.403556 65.391192-340.836848 219.508364-0.29996 1.313616-2.37899 17.025293-14.853172 16.528808-8.440242-0.341333-36.119273-11.336404-46.121374-16.032324-11.419152-5.357899-14.511838-3.971879-11.046788-21.214383 39.180929-195.925333 239.833212-327.969616 432.417616-282.789495 159.826747 37.484606 270.853172 176.179717 283.058425 334.196363 2.037657 21.162667-8.740202 28.692687-20.635152 28.806465z"
          fill="#FFFFFF" p-id="4405"></path>
    <path d="M604.418586 554.718384a28.651313 28.651313 0 1 1 0 57.302626h-57.292283v35.80897a35.80897 35.80897 0 0 1-71.617939 0V612.02101h-57.292283a28.661657 28.661657 0 0 1 0-57.302626h57.292283v-28.651313h-57.292283a28.651313 28.651313 0 0 1 0-57.302627h57.292283v-1.954909l-63.570748-63.560404a28.858182 28.858182 0 0 1 40.794505-40.804848l58.099071 58.088727 58.326626-58.326626a28.858182 28.858182 0 0 1 40.794505 40.804848l-62.82602 62.836364v2.927192h57.292283a28.651313 28.651313 0 1 1 0 57.302626h-57.292283v28.651313h57.292283v-0.010343z"
          fill="#FFFFFF" p-id="4406"></path>
    <path d="M317.036606 595.140525c12.567273 8.036848 9.536646 24.172606-4.271838 25.610344-13.808485 1.437737-57.054384 5.244121-57.054384 5.244121 34.288485 80.347798 103.765333 143.701333 193.608404 164.915717 150.631434 35.581414 304.686545-60.509091 339.130182-214.626263 0.703354-3.165091 0.682667-2.668606 1.913535-9.453899s3.227152-17.118384 16.487434-12.515555c13.260283 4.602828 45.604202 14.108444 55.689051 16.797737 10.074505 2.699636 8.936727 6.671515 7.674828 16.032324-0.382707 2.844444-0.961939 5.45099-1.572202 8.202343-45.08703 200.383354-241.353697 325.394101-438.365091 279.158949-159.640566-37.443232-270.604929-175.82804-283.01705-333.606787-1.68598-27.110141 17.470061-32.643879 37.050182-22.279758 15.39103 8.140283 120.159677 68.494222 132.726949 76.520727z"
          fill="#FFFFFF" p-id="4407"></path>
</svg>