<?xml version="1.0" standalone="no"?><!DOCTYPE svg PUBLIC "-//W3C//DTD SVG 1.1//EN" "http://www.w3.org/Graphics/SVG/1.1/DTD/svg11.dtd"><svg t="1575126210252" class="icon" viewBox="0 0 1026 1024" version="1.1" xmlns="http://www.w3.org/2000/svg" p-id="3637" xmlns:xlink="http://www.w3.org/1999/xlink" width="32.0625" height="32"><defs><style type="text/css"></style></defs><path d="M873.556122 149.98528c-199.96672-199.97184-523.10528-199.97184-723.072 0C-49.482598 349.952-50.475878 674.0224 149.490842 873.984c199.97184 200.00256 525.06112 200.00256 725.05856 0C1074.516122 674.0224 1073.522842 349.952 873.556122 149.98528zM749.160602 494.81216c0 29.67552-67.8656 52.37248-153.12384 52.37248-85.26336 0-153.12384-22.69696-153.12384-52.37248 0-29.68576 69.61152-52.38272 153.12384-52.38272C681.295002 442.42944 749.160602 465.1264 749.160602 494.81216zM425.510042 259.09248c85.25312 0 153.12384 22.70208 153.12384 52.38272s-67.87072 52.3776-153.12384 52.3776c-85.25824 0-154.86464-22.69696-154.86464-52.3776C270.645402 283.53536 340.251802 259.09248 425.510042 259.09248zM423.769242 669.41952c-86.99904 0-156.60032-31.44192-156.60032-69.85216l0-50.6368c0-6.98368 1.7408-12.23168 5.2224-17.45408 15.66208 31.42144 78.30528 54.1184 151.38304 54.1184L423.769242 669.41952 423.769242 669.41952zM423.769242 566.4c-86.99904 0-156.60032-31.43168-156.60032-69.84704l0-50.6368c0-5.23776 1.7408-12.22144 5.2224-17.4592 15.66208 31.42656 78.30528 54.12864 151.38304 54.12864L423.769242 566.4 423.769242 566.4zM425.510042 466.87232c-86.99904 0-158.34624-31.43168-158.34624-69.84192l0-50.63168c0-6.98368 1.7408-12.22656 3.4816-17.46432 3.4816 29.68064 71.34208 50.6368 154.86464 52.3776 83.52256 0 149.64736-22.69696 153.12384-50.63168 1.73568 5.23776 3.4816 10.47552 3.4816 15.71328l0 48.89088c0 10.4704-5.2224 20.94592-15.67232 29.68064-64.36864 3.49184-118.31296 19.20512-132.23424 41.9072C430.732442 466.87232 428.991642 466.87232 425.510042 466.87232zM754.383002 678.144c0 38.41536-71.34208 69.84704-158.34624 69.84704s-158.34624-31.43168-158.34624-69.84704l0-48.896c0-6.97856 1.7408-12.2112 5.2224-17.45408 17.40288 29.67552 80.04608 52.38272 153.12384 52.38272 74.82368 0 137.46176-22.71744 153.12384-54.12864 3.47648 6.9888 5.2224 12.22144 5.2224 17.4592L754.383002 678.144zM757.864602 578.62144c0 38.42048-71.3472 69.85216-158.34624 69.85216s-158.35136-31.43168-158.35136-69.85216l0-50.64192c0-5.22752 0-10.46528 3.4816-15.70304 3.48672 27.93472 69.61152 50.62144 153.12384 50.62144 83.52256 0 149.64736-22.69696 153.12384-50.62144 1.73568 5.23776 3.4816 10.4704 6.95808 15.70304L757.864602 578.62144 757.864602 578.62144z" fill="#fdc200" p-id="3638"></path></svg>