<?xml version="1.0" standalone="no"?><!DOCTYPE svg PUBLIC "-//W3C//DTD SVG 1.1//EN"
        "http://www.w3.org/Graphics/SVG/1.1/DTD/svg11.dtd">
<svg t="1573286416296" class="icon" viewBox="0 0 1024 1024" version="1.1" xmlns="http://www.w3.org/2000/svg" p-id="5429"
     width="25" height="25" xmlns:xlink="http://www.w3.org/1999/xlink">
    <defs>
        <style type="text/css"></style>
    </defs>
    <path d="M519.296 627.2c-128 0-230.4-102.4-230.4-230.4s102.4-230.4 230.4-230.4 230.4 102.4 230.4 230.4-102.4 230.4-230.4 230.4z m0-396.8c-89.6 0-166.4 76.8-166.4 166.4s76.8 166.4 166.4 166.4c89.6 0 166.4-76.8 166.4-166.4s-76.8-166.4-166.4-166.4z"
          fill="#bfbfbf" p-id="5430"></path>
    <path d="M852.096 889.6h-64c0-153.6-108.8-262.4-268.8-262.4s-275.2 108.8-275.2 262.4h-64c0-192 140.8-326.4 339.2-326.4 192 0 332.8 140.8 332.8 326.4z"
          fill="#bfbfbf" p-id="5431"></path>
    <path d="M512.896 1017.6c-281.6 0-505.6-230.4-505.6-505.6 0-281.6 230.4-505.6 505.6-505.6 281.6 0 505.6 230.4 505.6 505.6 6.4 281.6-224 505.6-505.6 505.6z m0-947.2c-243.2 0-441.6 198.4-441.6 441.6s198.4 441.6 441.6 441.6 441.6-198.4 441.6-441.6-198.4-441.6-441.6-441.6z"
          fill="#bfbfbf" p-id="5432"></path>
</svg>