<?xml version="1.0" standalone="no"?><!DOCTYPE svg PUBLIC "-//W3C//DTD SVG 1.1//EN"
        "http://www.w3.org/Graphics/SVG/1.1/DTD/svg11.dtd">
<svg t="1573286434227" class="icon" viewBox="0 0 1024 1024" version="1.1" xmlns="http://www.w3.org/2000/svg" p-id="6323"
     width="22" height="22" xmlns:xlink="http://www.w3.org/1999/xlink">
    <defs>
        <style type="text/css"></style>
    </defs>
    <path d="M691.818 264.063c-6.09-3.973-13.417-5.831-20.848-5.831-13.882 0-28.538 6.709-38.24 19.352L512.077 432.657 391.321 277.584c-9.65-12.643-24.357-19.352-38.239-19.352-7.328 0-14.656 1.858-20.745 5.831-18.114 11.56-20.642 36.382-5.728 55.527l117.917 151.72h-53.772c-13.005 0-24.977 3.973-33.647 10.682-8.566 6.708-13.881 15.74-13.881 25.854 0 20.384 21.26 36.743 47.528 36.743h75.86v30.447h-75.86c-13.005 0-24.977 4.231-33.647 10.785-8.566 6.709-13.881 15.894-13.881 26.06 0 20.127 21.26 36.744 47.528 36.744h75.86v69.615c0 13.004 4.695 24.977 12.023 33.543 7.328 8.67 17.391 13.882 28.538 13.882 22.5 0 40.613-21.21 40.613-47.425v-69.512h82.31c13.263 0 25.08-4.232 33.647-10.683 8.67-6.811 13.882-15.997 13.882-26.06 0-20.23-21.21-36.846-47.529-36.846h-82.31v-30.447h82.31c13.263 0 25.08-4.129 33.647-10.682 8.67-6.71 13.882-15.792 13.882-26.061 0-20.23-21.21-36.536-47.529-36.536H579.68l117.918-151.72c14.81-19.197 12.075-44.019-5.78-55.63z"
          fill="#bfbfbf" p-id="6324"></path>
    <path d="M512.026 1013.679c-67.706 0-133.4-13.263-195.274-39.426-59.759-25.287-113.376-61.41-159.46-107.494S75.085 767.06 49.8 707.3C23.584 645.426 10.32 579.68 10.32 511.975S23.584 378.575 49.747 316.7c25.287-59.758 61.41-113.376 107.494-159.46S256.993 75.035 316.7 49.748c61.874-26.163 127.567-39.426 195.273-39.426s133.4 13.263 195.274 39.426c59.759 25.287 113.376 61.41 159.46 107.494s82.207 99.7 107.493 159.46c26.164 61.874 39.426 127.567 39.426 195.273s-13.262 133.4-39.426 195.274c-25.286 59.759-61.41 113.376-107.493 159.46s-99.701 82.207-159.46 107.493c-61.823 26.164-127.516 39.478-195.222 39.478z m0-925.021c-233.41 0-423.368 189.906-423.368 423.368s189.906 423.368 423.368 423.368c233.41 0 423.368-189.907 423.368-423.368S745.436 88.658 512.026 88.658z"
          fill="#bfbfbf" p-id="6325"></path>
</svg>