<?xml version="1.0" standalone="no"?><!DOCTYPE svg PUBLIC "-//W3C//DTD SVG 1.1//EN"
        "http://www.w3.org/Graphics/SVG/1.1/DTD/svg11.dtd">
<svg t="1573286463072" class="icon" viewBox="0 0 1024 1024" version="1.1" xmlns="http://www.w3.org/2000/svg" p-id="7171"
     width="22" height="22" xmlns:xlink="http://www.w3.org/1999/xlink">
    <defs>
        <style type="text/css"></style>
    </defs>
    <path d="M887.232 0H578.496c-36.544 0-70.848 14.208-96.704 40.064L40 481.792a136.96 136.96 0 0 0 0 193.408l308.736 308.736c25.856 25.856 60.16 40.064 96.704 40.064s70.848-14.208 96.704-40.064l441.728-441.728c25.856-25.856 40.064-60.16 40.064-96.704V136.768A136.896 136.896 0 0 0 887.232 0z m72.704 445.504c0 19.328-7.68 37.824-21.312 51.456l-441.728 441.728a72.512 72.512 0 0 1-102.912 0L85.248 629.952a72.768 72.768 0 0 1 0-102.912l441.728-441.728A72.96 72.96 0 0 1 578.496 64h308.736C927.424 64 960 96.576 960 136.768v308.736z"
          p-id="7172" fill="#bfbfbf"></path>
    <path d="M587.2 255.808c-24.192 24.192-37.504 56.32-37.504 90.496 0 34.24 13.312 66.368 37.504 90.496 24.96 24.96 57.728 37.44 90.496 37.44s65.536-12.48 90.496-37.44c24.192-24.128 37.504-56.32 37.504-90.496s-13.312-66.304-37.504-90.496a128 128 0 0 0-180.992 0z m135.744 135.744a64 64 0 0 1-90.496-90.496 64 64 0 1 1 90.496 90.496z"
          p-id="7173" fill="#bfbfbf"></path>
</svg>