<?xml version="1.0" standalone="no"?><!DOCTYPE svg PUBLIC "-//W3C//DTD SVG 1.1//EN" "http://www.w3.org/Graphics/SVG/1.1/DTD/svg11.dtd"><svg t="1573286383163" class="icon" viewBox="0 0 1024 1024" version="1.1" xmlns="http://www.w3.org/2000/svg" p-id="4403" width="30" height="30" xmlns:xlink="http://www.w3.org/1999/xlink"><defs><style type="text/css"></style></defs><path d="M806.4 147.2c-70.4-32-172.8-44.8-294.4-44.8-115.2 0-224 19.2-294.4 44.8-89.6 38.4-128 83.2-128 140.8V768c0 51.2 44.8 102.4 128 134.4 70.4 32 172.8 44.8 294.4 44.8 115.2 0 224-19.2 294.4-44.8 83.2-32 128-83.2 128-134.4V281.6c6.4-51.2-38.4-96-128-134.4z m-76.8 601.6c57.6-12.8 89.6-32 134.4-51.2h6.4v64c0 25.6-38.4 57.6-108.8 76.8-57.6 19.2-147.2 38.4-243.2 38.4H512c-76.8 0-160-12.8-236.8-38.4-70.4-19.2-108.8-51.2-108.8-76.8v-64l6.4 6.4c38.4 19.2 76.8 38.4 121.6 51.2 64 19.2 147.2 25.6 211.2 25.6 76.8 0 147.2-12.8 224-32z m32-76.8c-70.4 19.2-166.4 32-243.2 32-76.8 0-166.4-12.8-243.2-38.4-70.4-19.2-108.8-44.8-108.8-76.8v-64l6.4 6.4c38.4 19.2 76.8 38.4 128 51.2 153.6 32 281.6 38.4 435.2 0 51.2-12.8 83.2-32 128-51.2l6.4-6.4v64c0 32-38.4 64-108.8 83.2z m0-166.4c-70.4 19.2-166.4 38.4-243.2 38.4-76.8 0-166.4-12.8-243.2-38.4-70.4-25.6-108.8-51.2-108.8-76.8V384c12.8 6.4 25.6 12.8 32 12.8 32 19.2 57.6 32 96 38.4 153.6 32 288 32 435.2 0 38.4-6.4 70.4-19.2 102.4-38.4 12.8-6.4 19.2-12.8 32-12.8v44.8c6.4 19.2-25.6 51.2-102.4 76.8z m-6.4-147.2c-57.6 25.6-147.2 38.4-236.8 38.4-96 0-179.2-12.8-243.2-38.4-64-19.2-108.8-44.8-108.8-70.4 0-25.6 38.4-51.2 108.8-76.8 57.6-25.6 140.8-38.4 236.8-38.4 76.8 0 166.4 12.8 236.8 38.4 70.4 25.6 108.8 51.2 108.8 76.8 6.4 25.6-32 51.2-102.4 70.4z" fill="#bfbfbf" p-id="4404"></path></svg>