<?xml version="1.0" standalone="no"?><!DOCTYPE svg PUBLIC "-//W3C//DTD SVG 1.1//EN" "http://www.w3.org/Graphics/SVG/1.1/DTD/svg11.dtd"><svg t="1573286483003" class="icon" viewBox="0 0 1024 1024" version="1.1" xmlns="http://www.w3.org/2000/svg" p-id="8080" width="30" height="30" xmlns:xlink="http://www.w3.org/1999/xlink"><defs><style type="text/css"></style></defs><path d="M68.266667 904.533333h887.466666a34.133333 34.133333 0 1 1 0 68.266667H68.266667a34.133333 34.133333 0 1 1 0-68.266667z m597.333333-238.933333h290.133333a34.133333 34.133333 0 1 1 0 68.266667H665.6a34.133333 34.133333 0 1 1 0-68.266667zM703.010133 18.432l89.156267 89.224533c24.644267 24.576 24.644267 64.580267 0 89.156267l-44.578133 44.6464L569.207467 63.0784 613.853867 18.432a63.0784 63.0784 0 0 1 89.156266 0zM524.629333 107.7248L703.010133 286.037333l-445.917866 445.917867L78.711467 553.5744l445.917866-445.917867zM34.133333 598.152533l178.3808 178.3808H34.133333V598.152533z" p-id="8081" fill="#bfbfbf"></path></svg>