<?xml version="1.0" standalone="no"?><!DOCTYPE svg PUBLIC "-//W3C//DTD SVG 1.1//EN"
        "http://www.w3.org/Graphics/SVG/1.1/DTD/svg11.dtd">
<svg t="1573286874754" class="icon" viewBox="0 0 1024 1024" version="1.1" xmlns="http://www.w3.org/2000/svg" p-id="8902"
     width="2" height="2" xmlns:xlink="http://www.w3.org/1999/xlink">
    <defs>
        <style type="text/css"></style>
    </defs>
    <path d="M921.6 640L682.666667 512l236.8-128c38.4-21.333333 53.333333-70.4 32-108.8-21.333333-38.4-70.4-53.333333-108.8-32l-251.733334 134.4V91.733333c0-44.8-36.266667-81.066667-81.066666-81.066666-44.8 0-81.066667 36.266667-81.066667 81.066666v285.866667L179.2 241.066667c-38.4-21.333333-87.466667-6.4-108.8 32s-6.4 87.466667 32 108.8l236.8 128-236.8 128c-38.4 21.333333-53.333333 70.4-32 108.8 21.333333 38.4 70.4 53.333333 108.8 32l251.733333-134.4v285.866666c0 44.8 36.266667 81.066667 81.066667 81.066667 44.8 0 81.066667-36.266667 81.066667-81.066667V646.4l251.733333 134.4c38.4 21.333333 87.466667 6.4 108.8-32s6.4-89.6-32-108.8z m0 0"
          fill="#D81E06" p-id="8903"></path>
</svg>